# xmcd CD database file
#
# Track frame offsets:
#	150
#	13657
#	31676
#	46062
#	66231
#	79185
#	93821
#	106607
#	122666
#	137943
#	151924
#
# Disc length: 2282 seconds
#
# Revision: 0
# Processed by: cddbd v1.5.2PL0 Copyright (c) Steve Scherf et al.
# Submitted via: CDex 1.51
#
DISCID=7b08e80b
DTITLE=Wendell Ferguson - Ménage A Moi
DYEAR=2009
DGENRE=Country
TTITLE0=The Mayor Of Loserville
TTITLE1=Merle Jam
TTITLE2=The Uptown Blues
TTITLE3=Save Your Fork, There's Pie
TTITLE4=Happy-Go-Lucky
TTITLE5=Ménage A Moi
TTITLE6=The Dirty Dish Rag
TTITLE7=Clean Sweep
TTITLE8=Cheeky
TTITLE9=Powder Keg
TTITLE10=Chimin' The Blues
EXTD=YEAR: 2009
EXTT0=
EXTT1=
EXTT2=
EXTT3=
EXTT4=
EXTT5=
EXTT6=
EXTT7=
EXTT8=
EXTT9=
EXTT10=
PLAYORDER=
